{
  "asset": {
    "version": "2.0",
    "generator": "MiniZinc Capsule Optimizer",
    "copyright": "Generated from VRM optimization"
  },
  "scene": 0,
  "scenes": [
    {
      "nodes": [
        0
      ]
    }
  ],
  "nodes": [
    {
      "name": "CapsuleRoot",
      "children": [
        1
      ]
    },
    {
      "name": "Capsule_TestCapsule_1",
      "mesh": 0
    }
  ],
  "meshes": [
    {
      "name": "Capsule_1",
      "primitives": [
        {
          "attributes": {
            "POSITION": 0,
            "NORMAL": 1
          },
          "indices": 2,
          "material": 0
        }
      ]
    }
  ],
  "accessors": [
    {
      "bufferView": 0,
      "byteOffset": 0,
      "componentType": 5126,
      "count": 402,
      "type": "VEC3",
      "min": [
        -0.5,
        -1.4903926402016152,
        -0.5
      ],
      "max": [
        0.5,
        1.3,
        0.5
      ]
    },
    {
      "bufferView": 1,
      "byteOffset": 0,
      "componentType": 5126,
      "count": 402,
      "type": "VEC3"
    },
    {
      "bufferView": 2,
      "byteOffset": 0,
      "componentType": 5125,
      "count": 2400,
      "type": "SCALAR"
    }
  ],
  "bufferViews": [
    {
      "buffer": 0,
      "byteOffset": 0,
      "byteLength": 4824
    },
    {
      "buffer": 0,
      "byteOffset": 4824,
      "byteLength": 4824
    },
    {
      "buffer": 0,
      "byteOffset": 9648,
      "byteLength": 9600
    }
  ],
  "buffers": [
    {
      "byteLength": 19248,
      "uri": "data:application/octet-stream;base64,"
    }
  ],
  "materials": [
    {
      "name": "CapsuleMaterial",
      "pbrMetallicRoughness": {
        "baseColorFactor": [
          0.8,
          0.2,
          0.2,
          1.0
        ],
        "metallicFactor": 0.0,
        "roughnessFactor": 0.8
      }
    }
  ]
}